<svg xmlns="http://www.w3.org/2000/svg" width="22" height="22" viewBox="0 0 22 22" fill="none">
  <g clip-path="url(#clip0_1690_29)">
    <mask id="holes" style="mask-type:luminance" maskUnits="userSpaceOnUse" x="0" y="0" width="22" height="22">
      <path d="M22 0H0V22H22V0Z" fill="white" />
      <path
        d="M11.0004 9.8002C11.6079 9.8002 12.1004 9.44202 12.1004 9.0002C12.1004 8.55837 11.6079 8.2002 11.0004 8.2002C10.3929 8.2002 9.90039 8.55837 9.90039 9.0002C9.90039 9.44202 10.3929 9.8002 11.0004 9.8002Z"
        fill="black" />
      <path
        d="M8.00039 7.8002C8.6079 7.8002 9.10039 7.44202 9.10039 7.0002C9.10039 6.55837 8.6079 6.2002 8.00039 6.2002C7.39288 6.2002 6.90039 6.55837 6.90039 7.0002C6.90039 7.44202 7.39288 7.8002 8.00039 7.8002Z"
        fill="black" />
      <path
        d="M14.0004 7.8002C14.6079 7.8002 15.1004 7.44202 15.1004 7.0002C15.1004 6.55837 14.6079 6.2002 14.0004 6.2002C13.3929 6.2002 12.9004 6.55837 12.9004 7.0002C12.9004 7.44202 13.3929 7.8002 14.0004 7.8002Z"
        fill="black" />
      <path
        d="M11.0004 5.8002C11.6079 5.8002 12.1004 5.44202 12.1004 5.0002C12.1004 4.55837 11.6079 4.2002 11.0004 4.2002C10.3929 4.2002 9.90039 4.55837 9.90039 5.0002C9.90039 5.44202 10.3929 5.8002 11.0004 5.8002Z"
        fill="black" />
      <path d="M15.1602 6.99902L10.999 9.31152L6.83691 6.99902L10.999 4.68652L15.1602 6.99902Z" stroke="black"
        stroke-width="0.7" />
    </mask>
    <g mask="url(#holes)">
      <path d="M2 7L11 2L20 7L11 12L2 7Z" fill="black" />
      <path d="M2 7L11 2L20 7L11 12L2 7Z" fill="black" />
      <path opacity="0.6" d="M2 7L11 12V20L2 7Z" fill="black" />
      <path opacity="0.35" d="M11 12L20 7L11 20V12Z" fill="black" />
    </g>
  </g>
  <defs>
    <clipPath id="clip0_1690_29">
      <rect width="22" height="22" fill="white" />
    </clipPath>
  </defs>
</svg>